<mxfile host="app.diagrams.net" modified="2023-09-01T01:10:39.532Z" agent="Mozilla/5.0 (Macintosh; Intel Mac OS X 10_15_7) AppleWebKit/537.36 (KHTML, like Gecko) Chrome/116.0.0.0 Safari/537.36" etag="xtyU9OaXeGPV7oJMfrVS" version="21.7.1" type="github">
  <diagram name="第 1 页" id="YQ_WwDAmIUOAAhOGefHQ">
    <mxGraphModel dx="299" dy="171" grid="1" gridSize="10" guides="1" tooltips="1" connect="1" arrows="1" fold="1" page="1" pageScale="1" pageWidth="827" pageHeight="1169" math="0" shadow="0">
      <root>
        <mxCell id="0" />
        <mxCell id="1" parent="0" />
        <mxCell id="dQwBcyI58okyFWnF7Auc-1" value="" style="rounded=0;whiteSpace=wrap;html=1;fillColor=#f8cecc;strokeColor=none;" vertex="1" parent="1">
          <mxGeometry x="230" y="190" width="10" height="10" as="geometry" />
        </mxCell>
        <mxCell id="dQwBcyI58okyFWnF7Auc-2" value="" style="rounded=0;whiteSpace=wrap;html=1;fillColor=#f8cecc;strokeColor=none;" vertex="1" parent="1">
          <mxGeometry x="230" y="200" width="10" height="10" as="geometry" />
        </mxCell>
        <mxCell id="dQwBcyI58okyFWnF7Auc-3" value="" style="rounded=0;whiteSpace=wrap;html=1;fillColor=#f8cecc;strokeColor=none;" vertex="1" parent="1">
          <mxGeometry x="230" y="210" width="10" height="10" as="geometry" />
        </mxCell>
        <mxCell id="dQwBcyI58okyFWnF7Auc-4" value="" style="rounded=0;whiteSpace=wrap;html=1;fillColor=#f8cecc;strokeColor=none;" vertex="1" parent="1">
          <mxGeometry x="230" y="220" width="10" height="10" as="geometry" />
        </mxCell>
        <mxCell id="dQwBcyI58okyFWnF7Auc-5" value="" style="rounded=0;whiteSpace=wrap;html=1;fillColor=#f8cecc;strokeColor=none;" vertex="1" parent="1">
          <mxGeometry x="230" y="230" width="10" height="10" as="geometry" />
        </mxCell>
        <mxCell id="dQwBcyI58okyFWnF7Auc-6" value="" style="rounded=0;whiteSpace=wrap;html=1;fillColor=#f8cecc;strokeColor=none;" vertex="1" parent="1">
          <mxGeometry x="230" y="180" width="10" height="10" as="geometry" />
        </mxCell>
        <mxCell id="dQwBcyI58okyFWnF7Auc-8" value="" style="rounded=0;whiteSpace=wrap;html=1;fillColor=#f8cecc;strokeColor=none;" vertex="1" parent="1">
          <mxGeometry x="230" y="170" width="10" height="10" as="geometry" />
        </mxCell>
        <mxCell id="dQwBcyI58okyFWnF7Auc-9" value="" style="rounded=0;whiteSpace=wrap;html=1;fillColor=#f8cecc;strokeColor=none;" vertex="1" parent="1">
          <mxGeometry x="230" y="160" width="10" height="10" as="geometry" />
        </mxCell>
        <mxCell id="dQwBcyI58okyFWnF7Auc-10" value="" style="rounded=0;whiteSpace=wrap;html=1;fillColor=#ffe6cc;strokeColor=none;" vertex="1" parent="1">
          <mxGeometry x="250" y="190" width="10" height="10" as="geometry" />
        </mxCell>
        <mxCell id="dQwBcyI58okyFWnF7Auc-11" value="" style="rounded=0;whiteSpace=wrap;html=1;fillColor=#ffe6cc;strokeColor=none;" vertex="1" parent="1">
          <mxGeometry x="250" y="200" width="10" height="10" as="geometry" />
        </mxCell>
        <mxCell id="dQwBcyI58okyFWnF7Auc-12" value="" style="rounded=0;whiteSpace=wrap;html=1;fillColor=#ffe6cc;strokeColor=none;" vertex="1" parent="1">
          <mxGeometry x="250" y="210" width="10" height="10" as="geometry" />
        </mxCell>
        <mxCell id="dQwBcyI58okyFWnF7Auc-13" value="" style="rounded=0;whiteSpace=wrap;html=1;fillColor=#ffe6cc;strokeColor=none;" vertex="1" parent="1">
          <mxGeometry x="250" y="220" width="10" height="10" as="geometry" />
        </mxCell>
        <mxCell id="dQwBcyI58okyFWnF7Auc-14" value="" style="rounded=0;whiteSpace=wrap;html=1;fillColor=#ffe6cc;strokeColor=none;" vertex="1" parent="1">
          <mxGeometry x="250" y="230" width="10" height="10" as="geometry" />
        </mxCell>
        <mxCell id="dQwBcyI58okyFWnF7Auc-15" value="" style="rounded=0;whiteSpace=wrap;html=1;fillColor=#ffe6cc;strokeColor=none;" vertex="1" parent="1">
          <mxGeometry x="250" y="180" width="10" height="10" as="geometry" />
        </mxCell>
        <mxCell id="dQwBcyI58okyFWnF7Auc-16" value="" style="rounded=0;whiteSpace=wrap;html=1;fillColor=#ffe6cc;strokeColor=none;" vertex="1" parent="1">
          <mxGeometry x="250" y="170" width="10" height="10" as="geometry" />
        </mxCell>
        <mxCell id="dQwBcyI58okyFWnF7Auc-17" value="" style="rounded=0;whiteSpace=wrap;html=1;fillColor=#ffe6cc;strokeColor=none;" vertex="1" parent="1">
          <mxGeometry x="250" y="160" width="10" height="10" as="geometry" />
        </mxCell>
        <mxCell id="dQwBcyI58okyFWnF7Auc-18" value="" style="rounded=0;whiteSpace=wrap;html=1;fillColor=#fff2cc;strokeColor=none;" vertex="1" parent="1">
          <mxGeometry x="270" y="190" width="10" height="10" as="geometry" />
        </mxCell>
        <mxCell id="dQwBcyI58okyFWnF7Auc-19" value="" style="rounded=0;whiteSpace=wrap;html=1;fillColor=#fff2cc;strokeColor=none;" vertex="1" parent="1">
          <mxGeometry x="270" y="200" width="10" height="10" as="geometry" />
        </mxCell>
        <mxCell id="dQwBcyI58okyFWnF7Auc-20" value="" style="rounded=0;whiteSpace=wrap;html=1;fillColor=#fff2cc;strokeColor=none;" vertex="1" parent="1">
          <mxGeometry x="270" y="210" width="10" height="10" as="geometry" />
        </mxCell>
        <mxCell id="dQwBcyI58okyFWnF7Auc-21" value="" style="rounded=0;whiteSpace=wrap;html=1;fillColor=#fff2cc;strokeColor=none;" vertex="1" parent="1">
          <mxGeometry x="270" y="220" width="10" height="10" as="geometry" />
        </mxCell>
        <mxCell id="dQwBcyI58okyFWnF7Auc-22" value="" style="rounded=0;whiteSpace=wrap;html=1;fillColor=#fff2cc;strokeColor=none;" vertex="1" parent="1">
          <mxGeometry x="270" y="230" width="10" height="10" as="geometry" />
        </mxCell>
        <mxCell id="dQwBcyI58okyFWnF7Auc-23" value="" style="rounded=0;whiteSpace=wrap;html=1;fillColor=#fff2cc;strokeColor=none;" vertex="1" parent="1">
          <mxGeometry x="270" y="180" width="10" height="10" as="geometry" />
        </mxCell>
        <mxCell id="dQwBcyI58okyFWnF7Auc-24" value="" style="rounded=0;whiteSpace=wrap;html=1;fillColor=#fff2cc;strokeColor=none;" vertex="1" parent="1">
          <mxGeometry x="270" y="170" width="10" height="10" as="geometry" />
        </mxCell>
        <mxCell id="dQwBcyI58okyFWnF7Auc-25" value="" style="rounded=0;whiteSpace=wrap;html=1;fillColor=#fff2cc;strokeColor=none;" vertex="1" parent="1">
          <mxGeometry x="270" y="160" width="10" height="10" as="geometry" />
        </mxCell>
        <mxCell id="dQwBcyI58okyFWnF7Auc-26" value="" style="rounded=0;whiteSpace=wrap;html=1;fillColor=#d5e8d4;strokeColor=none;" vertex="1" parent="1">
          <mxGeometry x="290" y="190" width="10" height="10" as="geometry" />
        </mxCell>
        <mxCell id="dQwBcyI58okyFWnF7Auc-27" value="" style="rounded=0;whiteSpace=wrap;html=1;fillColor=#d5e8d4;strokeColor=none;" vertex="1" parent="1">
          <mxGeometry x="290" y="200" width="10" height="10" as="geometry" />
        </mxCell>
        <mxCell id="dQwBcyI58okyFWnF7Auc-28" value="" style="rounded=0;whiteSpace=wrap;html=1;fillColor=#d5e8d4;strokeColor=none;" vertex="1" parent="1">
          <mxGeometry x="290" y="210" width="10" height="10" as="geometry" />
        </mxCell>
        <mxCell id="dQwBcyI58okyFWnF7Auc-29" value="" style="rounded=0;whiteSpace=wrap;html=1;fillColor=#d5e8d4;strokeColor=none;" vertex="1" parent="1">
          <mxGeometry x="290" y="220" width="10" height="10" as="geometry" />
        </mxCell>
        <mxCell id="dQwBcyI58okyFWnF7Auc-30" value="" style="rounded=0;whiteSpace=wrap;html=1;fillColor=#d5e8d4;strokeColor=none;" vertex="1" parent="1">
          <mxGeometry x="310" y="280" width="10" height="10" as="geometry" />
        </mxCell>
        <mxCell id="dQwBcyI58okyFWnF7Auc-31" value="" style="rounded=0;whiteSpace=wrap;html=1;fillColor=#d5e8d4;strokeColor=none;" vertex="1" parent="1">
          <mxGeometry x="290" y="180" width="10" height="10" as="geometry" />
        </mxCell>
        <mxCell id="dQwBcyI58okyFWnF7Auc-32" value="" style="rounded=0;whiteSpace=wrap;html=1;fillColor=#d5e8d4;strokeColor=none;" vertex="1" parent="1">
          <mxGeometry x="290" y="170" width="10" height="10" as="geometry" />
        </mxCell>
        <mxCell id="dQwBcyI58okyFWnF7Auc-33" value="" style="rounded=0;whiteSpace=wrap;html=1;fillColor=#d5e8d4;strokeColor=none;" vertex="1" parent="1">
          <mxGeometry x="290" y="160" width="10" height="10" as="geometry" />
        </mxCell>
        <mxCell id="dQwBcyI58okyFWnF7Auc-34" value="" style="rounded=0;whiteSpace=wrap;html=1;fillColor=#dae8fc;strokeColor=none;" vertex="1" parent="1">
          <mxGeometry x="310" y="190" width="10" height="10" as="geometry" />
        </mxCell>
        <mxCell id="dQwBcyI58okyFWnF7Auc-35" value="" style="rounded=0;whiteSpace=wrap;html=1;fillColor=#dae8fc;strokeColor=none;" vertex="1" parent="1">
          <mxGeometry x="310" y="200" width="10" height="10" as="geometry" />
        </mxCell>
        <mxCell id="dQwBcyI58okyFWnF7Auc-36" value="" style="rounded=0;whiteSpace=wrap;html=1;fillColor=#dae8fc;strokeColor=none;" vertex="1" parent="1">
          <mxGeometry x="310" y="210" width="10" height="10" as="geometry" />
        </mxCell>
        <mxCell id="dQwBcyI58okyFWnF7Auc-37" value="" style="rounded=0;whiteSpace=wrap;html=1;fillColor=#dae8fc;strokeColor=none;" vertex="1" parent="1">
          <mxGeometry x="310" y="220" width="10" height="10" as="geometry" />
        </mxCell>
        <mxCell id="dQwBcyI58okyFWnF7Auc-38" value="" style="rounded=0;whiteSpace=wrap;html=1;fillColor=#dae8fc;strokeColor=none;" vertex="1" parent="1">
          <mxGeometry x="310" y="230" width="10" height="10" as="geometry" />
        </mxCell>
        <mxCell id="dQwBcyI58okyFWnF7Auc-39" value="" style="rounded=0;whiteSpace=wrap;html=1;fillColor=#dae8fc;strokeColor=none;" vertex="1" parent="1">
          <mxGeometry x="310" y="180" width="10" height="10" as="geometry" />
        </mxCell>
        <mxCell id="dQwBcyI58okyFWnF7Auc-40" value="" style="rounded=0;whiteSpace=wrap;html=1;fillColor=#dae8fc;strokeColor=none;" vertex="1" parent="1">
          <mxGeometry x="310" y="170" width="10" height="10" as="geometry" />
        </mxCell>
        <mxCell id="dQwBcyI58okyFWnF7Auc-41" value="" style="rounded=0;whiteSpace=wrap;html=1;fillColor=#dae8fc;strokeColor=none;" vertex="1" parent="1">
          <mxGeometry x="310" y="160" width="10" height="10" as="geometry" />
        </mxCell>
        <mxCell id="dQwBcyI58okyFWnF7Auc-42" value="" style="rounded=0;whiteSpace=wrap;html=1;fillColor=#e1d5e7;strokeColor=none;" vertex="1" parent="1">
          <mxGeometry x="330" y="190" width="10" height="10" as="geometry" />
        </mxCell>
        <mxCell id="dQwBcyI58okyFWnF7Auc-43" value="" style="rounded=0;whiteSpace=wrap;html=1;fillColor=#e1d5e7;strokeColor=none;" vertex="1" parent="1">
          <mxGeometry x="330" y="200" width="10" height="10" as="geometry" />
        </mxCell>
        <mxCell id="dQwBcyI58okyFWnF7Auc-44" value="" style="rounded=0;whiteSpace=wrap;html=1;fillColor=#e1d5e7;strokeColor=none;" vertex="1" parent="1">
          <mxGeometry x="330" y="210" width="10" height="10" as="geometry" />
        </mxCell>
        <mxCell id="dQwBcyI58okyFWnF7Auc-45" value="" style="rounded=0;whiteSpace=wrap;html=1;fillColor=#e1d5e7;strokeColor=none;" vertex="1" parent="1">
          <mxGeometry x="330" y="220" width="10" height="10" as="geometry" />
        </mxCell>
        <mxCell id="dQwBcyI58okyFWnF7Auc-46" value="" style="rounded=0;whiteSpace=wrap;html=1;fillColor=#e1d5e7;strokeColor=none;" vertex="1" parent="1">
          <mxGeometry x="330" y="230" width="10" height="10" as="geometry" />
        </mxCell>
        <mxCell id="dQwBcyI58okyFWnF7Auc-47" value="" style="rounded=0;whiteSpace=wrap;html=1;fillColor=#e1d5e7;strokeColor=none;" vertex="1" parent="1">
          <mxGeometry x="330" y="180" width="10" height="10" as="geometry" />
        </mxCell>
        <mxCell id="dQwBcyI58okyFWnF7Auc-48" value="" style="rounded=0;whiteSpace=wrap;html=1;fillColor=#e1d5e7;strokeColor=none;" vertex="1" parent="1">
          <mxGeometry x="330" y="170" width="10" height="10" as="geometry" />
        </mxCell>
        <mxCell id="dQwBcyI58okyFWnF7Auc-49" value="" style="rounded=0;whiteSpace=wrap;html=1;fillColor=#e1d5e7;strokeColor=none;" vertex="1" parent="1">
          <mxGeometry x="330" y="160" width="10" height="10" as="geometry" />
        </mxCell>
        <mxCell id="dQwBcyI58okyFWnF7Auc-50" value="" style="rounded=0;whiteSpace=wrap;html=1;fillColor=#f5f5f5;strokeColor=none;fontColor=#333333;" vertex="1" parent="1">
          <mxGeometry x="350" y="190" width="10" height="10" as="geometry" />
        </mxCell>
        <mxCell id="dQwBcyI58okyFWnF7Auc-51" value="" style="rounded=0;whiteSpace=wrap;html=1;fillColor=#f5f5f5;strokeColor=none;fontColor=#333333;" vertex="1" parent="1">
          <mxGeometry x="350" y="200" width="10" height="10" as="geometry" />
        </mxCell>
        <mxCell id="dQwBcyI58okyFWnF7Auc-52" value="" style="rounded=0;whiteSpace=wrap;html=1;fillColor=#f5f5f5;strokeColor=none;fontColor=#333333;" vertex="1" parent="1">
          <mxGeometry x="350" y="210" width="10" height="10" as="geometry" />
        </mxCell>
        <mxCell id="dQwBcyI58okyFWnF7Auc-53" value="" style="rounded=0;whiteSpace=wrap;html=1;fillColor=#f5f5f5;strokeColor=none;fontColor=#333333;" vertex="1" parent="1">
          <mxGeometry x="350" y="220" width="10" height="10" as="geometry" />
        </mxCell>
        <mxCell id="dQwBcyI58okyFWnF7Auc-54" value="" style="rounded=0;whiteSpace=wrap;html=1;fillColor=#f5f5f5;strokeColor=none;fontColor=#333333;" vertex="1" parent="1">
          <mxGeometry x="350" y="230" width="10" height="10" as="geometry" />
        </mxCell>
        <mxCell id="dQwBcyI58okyFWnF7Auc-55" value="" style="rounded=0;whiteSpace=wrap;html=1;fillColor=#f5f5f5;strokeColor=none;fontColor=#333333;" vertex="1" parent="1">
          <mxGeometry x="350" y="180" width="10" height="10" as="geometry" />
        </mxCell>
        <mxCell id="dQwBcyI58okyFWnF7Auc-56" value="" style="rounded=0;whiteSpace=wrap;html=1;fillColor=#f5f5f5;strokeColor=none;fontColor=#333333;" vertex="1" parent="1">
          <mxGeometry x="350" y="170" width="10" height="10" as="geometry" />
        </mxCell>
        <mxCell id="dQwBcyI58okyFWnF7Auc-57" value="" style="rounded=0;whiteSpace=wrap;html=1;fillColor=#f5f5f5;strokeColor=none;fontColor=#333333;" vertex="1" parent="1">
          <mxGeometry x="350" y="160" width="10" height="10" as="geometry" />
        </mxCell>
        <mxCell id="dQwBcyI58okyFWnF7Auc-58" value="" style="rounded=0;whiteSpace=wrap;html=1;fillColor=#f8cecc;strokeColor=none;" vertex="1" parent="1">
          <mxGeometry x="230" y="290" width="10" height="10" as="geometry" />
        </mxCell>
        <mxCell id="dQwBcyI58okyFWnF7Auc-59" value="" style="rounded=0;whiteSpace=wrap;html=1;fillColor=#f8cecc;strokeColor=none;" vertex="1" parent="1">
          <mxGeometry x="230" y="280" width="10" height="10" as="geometry" />
        </mxCell>
        <mxCell id="dQwBcyI58okyFWnF7Auc-60" value="" style="rounded=0;whiteSpace=wrap;html=1;fillColor=#ffe6cc;strokeColor=none;" vertex="1" parent="1">
          <mxGeometry x="270" y="280" width="10" height="10" as="geometry" />
        </mxCell>
        <mxCell id="dQwBcyI58okyFWnF7Auc-61" value="" style="rounded=0;whiteSpace=wrap;html=1;fillColor=#d5e8d4;strokeColor=none;" vertex="1" parent="1">
          <mxGeometry x="290" y="230" width="10" height="10" as="geometry" />
        </mxCell>
        <mxCell id="dQwBcyI58okyFWnF7Auc-62" value="" style="rounded=0;whiteSpace=wrap;html=1;fillColor=#f5f5f5;strokeColor=none;fontColor=#333333;" vertex="1" parent="1">
          <mxGeometry x="250" y="280" width="10" height="10" as="geometry" />
        </mxCell>
        <mxCell id="dQwBcyI58okyFWnF7Auc-63" value="" style="rounded=0;whiteSpace=wrap;html=1;fillColor=#e1d5e7;strokeColor=none;" vertex="1" parent="1">
          <mxGeometry x="290" y="280" width="10" height="10" as="geometry" />
        </mxCell>
        <mxCell id="dQwBcyI58okyFWnF7Auc-64" value="" style="rounded=0;whiteSpace=wrap;html=1;fillColor=#dae8fc;strokeColor=none;" vertex="1" parent="1">
          <mxGeometry x="330" y="280" width="10" height="10" as="geometry" />
        </mxCell>
        <mxCell id="dQwBcyI58okyFWnF7Auc-65" value="" style="rounded=0;whiteSpace=wrap;html=1;fillColor=#fff2cc;strokeColor=none;" vertex="1" parent="1">
          <mxGeometry x="350" y="280" width="10" height="10" as="geometry" />
        </mxCell>
        <mxCell id="dQwBcyI58okyFWnF7Auc-66" value="" style="rounded=0;whiteSpace=wrap;html=1;fillColor=#ffe6cc;strokeColor=none;" vertex="1" parent="1">
          <mxGeometry x="250" y="290" width="10" height="10" as="geometry" />
        </mxCell>
        <mxCell id="dQwBcyI58okyFWnF7Auc-67" value="" style="rounded=0;whiteSpace=wrap;html=1;fillColor=#ffe6cc;strokeColor=none;" vertex="1" parent="1">
          <mxGeometry x="250" y="300" width="10" height="10" as="geometry" />
        </mxCell>
        <mxCell id="dQwBcyI58okyFWnF7Auc-68" value="" style="rounded=0;whiteSpace=wrap;html=1;fillColor=#ffe6cc;strokeColor=none;" vertex="1" parent="1">
          <mxGeometry x="250" y="310" width="10" height="10" as="geometry" />
        </mxCell>
        <mxCell id="dQwBcyI58okyFWnF7Auc-69" value="" style="rounded=0;whiteSpace=wrap;html=1;fillColor=#ffe6cc;strokeColor=none;" vertex="1" parent="1">
          <mxGeometry x="250" y="320" width="10" height="10" as="geometry" />
        </mxCell>
        <mxCell id="dQwBcyI58okyFWnF7Auc-74" value="" style="rounded=0;whiteSpace=wrap;html=1;fillColor=#d5e8d4;strokeColor=none;" vertex="1" parent="1">
          <mxGeometry x="250" y="330" width="10" height="10" as="geometry" />
        </mxCell>
        <mxCell id="dQwBcyI58okyFWnF7Auc-75" value="" style="rounded=0;whiteSpace=wrap;html=1;fillColor=#d5e8d4;strokeColor=none;" vertex="1" parent="1">
          <mxGeometry x="250" y="340" width="10" height="10" as="geometry" />
        </mxCell>
        <mxCell id="dQwBcyI58okyFWnF7Auc-76" value="" style="rounded=0;whiteSpace=wrap;html=1;fillColor=#d5e8d4;strokeColor=none;" vertex="1" parent="1">
          <mxGeometry x="250" y="350" width="10" height="10" as="geometry" />
        </mxCell>
        <mxCell id="dQwBcyI58okyFWnF7Auc-77" value="" style="rounded=0;whiteSpace=wrap;html=1;fillColor=#e1d5e7;strokeColor=none;" vertex="1" parent="1">
          <mxGeometry x="230" y="300" width="10" height="10" as="geometry" />
        </mxCell>
        <mxCell id="dQwBcyI58okyFWnF7Auc-78" value="" style="rounded=0;whiteSpace=wrap;html=1;fillColor=#e1d5e7;strokeColor=none;" vertex="1" parent="1">
          <mxGeometry x="230" y="310" width="10" height="10" as="geometry" />
        </mxCell>
        <mxCell id="dQwBcyI58okyFWnF7Auc-79" value="" style="rounded=0;whiteSpace=wrap;html=1;fillColor=#f5f5f5;strokeColor=none;fontColor=#333333;" vertex="1" parent="1">
          <mxGeometry x="230" y="320" width="10" height="10" as="geometry" />
        </mxCell>
        <mxCell id="dQwBcyI58okyFWnF7Auc-80" value="" style="rounded=0;whiteSpace=wrap;html=1;fillColor=#d5e8d4;strokeColor=none;" vertex="1" parent="1">
          <mxGeometry x="330" y="320" width="10" height="10" as="geometry" />
        </mxCell>
        <mxCell id="dQwBcyI58okyFWnF7Auc-81" value="" style="rounded=0;whiteSpace=wrap;html=1;fillColor=#d5e8d4;strokeColor=none;" vertex="1" parent="1">
          <mxGeometry x="330" y="330" width="10" height="10" as="geometry" />
        </mxCell>
        <mxCell id="dQwBcyI58okyFWnF7Auc-82" value="" style="rounded=0;whiteSpace=wrap;html=1;fillColor=#d5e8d4;strokeColor=none;" vertex="1" parent="1">
          <mxGeometry x="330" y="340" width="10" height="10" as="geometry" />
        </mxCell>
        <mxCell id="dQwBcyI58okyFWnF7Auc-83" value="" style="rounded=0;whiteSpace=wrap;html=1;fillColor=#d5e8d4;strokeColor=none;" vertex="1" parent="1">
          <mxGeometry x="330" y="350" width="10" height="10" as="geometry" />
        </mxCell>
        <mxCell id="dQwBcyI58okyFWnF7Auc-84" value="" style="rounded=0;whiteSpace=wrap;html=1;fillColor=#f8cecc;strokeColor=none;" vertex="1" parent="1">
          <mxGeometry x="350" y="290" width="10" height="10" as="geometry" />
        </mxCell>
        <mxCell id="dQwBcyI58okyFWnF7Auc-85" value="" style="rounded=0;whiteSpace=wrap;html=1;fillColor=#f8cecc;strokeColor=none;" vertex="1" parent="1">
          <mxGeometry x="350" y="300" width="10" height="10" as="geometry" />
        </mxCell>
        <mxCell id="dQwBcyI58okyFWnF7Auc-86" value="" style="rounded=0;whiteSpace=wrap;html=1;fillColor=#f8cecc;strokeColor=none;" vertex="1" parent="1">
          <mxGeometry x="350" y="310" width="10" height="10" as="geometry" />
        </mxCell>
        <mxCell id="dQwBcyI58okyFWnF7Auc-87" value="" style="rounded=0;whiteSpace=wrap;html=1;fillColor=#f8cecc;strokeColor=none;" vertex="1" parent="1">
          <mxGeometry x="350" y="320" width="10" height="10" as="geometry" />
        </mxCell>
        <mxCell id="dQwBcyI58okyFWnF7Auc-88" value="" style="rounded=0;whiteSpace=wrap;html=1;fillColor=#f8cecc;strokeColor=none;" vertex="1" parent="1">
          <mxGeometry x="270" y="290" width="10" height="10" as="geometry" />
        </mxCell>
        <mxCell id="dQwBcyI58okyFWnF7Auc-89" value="" style="rounded=0;whiteSpace=wrap;html=1;fillColor=#f8cecc;strokeColor=none;" vertex="1" parent="1">
          <mxGeometry x="270" y="300" width="10" height="10" as="geometry" />
        </mxCell>
        <mxCell id="dQwBcyI58okyFWnF7Auc-90" value="" style="rounded=0;whiteSpace=wrap;html=1;fillColor=#e1d5e7;strokeColor=none;" vertex="1" parent="1">
          <mxGeometry x="310" y="310" width="10" height="10" as="geometry" />
        </mxCell>
        <mxCell id="dQwBcyI58okyFWnF7Auc-91" value="" style="rounded=0;whiteSpace=wrap;html=1;fillColor=#e1d5e7;strokeColor=none;" vertex="1" parent="1">
          <mxGeometry x="310" y="320" width="10" height="10" as="geometry" />
        </mxCell>
        <mxCell id="dQwBcyI58okyFWnF7Auc-92" value="" style="rounded=0;whiteSpace=wrap;html=1;fillColor=#e1d5e7;strokeColor=none;" vertex="1" parent="1">
          <mxGeometry x="310" y="330" width="10" height="10" as="geometry" />
        </mxCell>
        <mxCell id="dQwBcyI58okyFWnF7Auc-93" value="" style="rounded=0;whiteSpace=wrap;html=1;fillColor=#e1d5e7;strokeColor=none;" vertex="1" parent="1">
          <mxGeometry x="310" y="340" width="10" height="10" as="geometry" />
        </mxCell>
        <mxCell id="dQwBcyI58okyFWnF7Auc-94" value="" style="rounded=0;whiteSpace=wrap;html=1;fillColor=#e1d5e7;strokeColor=none;" vertex="1" parent="1">
          <mxGeometry x="310" y="350" width="10" height="10" as="geometry" />
        </mxCell>
        <mxCell id="dQwBcyI58okyFWnF7Auc-95" value="" style="rounded=0;whiteSpace=wrap;html=1;fillColor=#fff2cc;strokeColor=none;" vertex="1" parent="1">
          <mxGeometry x="290" y="310" width="10" height="10" as="geometry" />
        </mxCell>
        <mxCell id="dQwBcyI58okyFWnF7Auc-96" value="" style="rounded=0;whiteSpace=wrap;html=1;fillColor=#fff2cc;strokeColor=none;" vertex="1" parent="1">
          <mxGeometry x="330" y="300" width="10" height="10" as="geometry" />
        </mxCell>
        <mxCell id="dQwBcyI58okyFWnF7Auc-97" value="" style="rounded=0;whiteSpace=wrap;html=1;fillColor=#fff2cc;strokeColor=none;" vertex="1" parent="1">
          <mxGeometry x="270" y="310" width="10" height="10" as="geometry" />
        </mxCell>
        <mxCell id="dQwBcyI58okyFWnF7Auc-98" value="" style="rounded=0;whiteSpace=wrap;html=1;fillColor=#fff2cc;strokeColor=none;" vertex="1" parent="1">
          <mxGeometry x="270" y="320" width="10" height="10" as="geometry" />
        </mxCell>
        <mxCell id="dQwBcyI58okyFWnF7Auc-99" value="" style="rounded=0;whiteSpace=wrap;html=1;fillColor=#fff2cc;strokeColor=none;" vertex="1" parent="1">
          <mxGeometry x="270" y="330" width="10" height="10" as="geometry" />
        </mxCell>
        <mxCell id="dQwBcyI58okyFWnF7Auc-100" value="" style="rounded=0;whiteSpace=wrap;html=1;fillColor=#fff2cc;strokeColor=none;" vertex="1" parent="1">
          <mxGeometry x="290" y="300" width="10" height="10" as="geometry" />
        </mxCell>
        <mxCell id="dQwBcyI58okyFWnF7Auc-101" value="" style="rounded=0;whiteSpace=wrap;html=1;fillColor=#fff2cc;strokeColor=none;" vertex="1" parent="1">
          <mxGeometry x="290" y="290" width="10" height="10" as="geometry" />
        </mxCell>
        <mxCell id="dQwBcyI58okyFWnF7Auc-102" value="" style="rounded=0;whiteSpace=wrap;html=1;fillColor=#ffe6cc;strokeColor=none;" vertex="1" parent="1">
          <mxGeometry x="230" y="340" width="10" height="10" as="geometry" />
        </mxCell>
        <mxCell id="dQwBcyI58okyFWnF7Auc-103" value="" style="rounded=0;whiteSpace=wrap;html=1;fillColor=#ffe6cc;strokeColor=none;" vertex="1" parent="1">
          <mxGeometry x="230" y="350" width="10" height="10" as="geometry" />
        </mxCell>
        <mxCell id="dQwBcyI58okyFWnF7Auc-104" value="" style="rounded=0;whiteSpace=wrap;html=1;fillColor=#ffe6cc;strokeColor=none;" vertex="1" parent="1">
          <mxGeometry x="330" y="310" width="10" height="10" as="geometry" />
        </mxCell>
        <mxCell id="dQwBcyI58okyFWnF7Auc-105" value="" style="rounded=0;whiteSpace=wrap;html=1;fillColor=#f5f5f5;strokeColor=none;fontColor=#333333;" vertex="1" parent="1">
          <mxGeometry x="290" y="330" width="10" height="10" as="geometry" />
        </mxCell>
        <mxCell id="dQwBcyI58okyFWnF7Auc-106" value="" style="rounded=0;whiteSpace=wrap;html=1;fillColor=#f5f5f5;strokeColor=none;fontColor=#333333;" vertex="1" parent="1">
          <mxGeometry x="350" y="330" width="10" height="10" as="geometry" />
        </mxCell>
        <mxCell id="dQwBcyI58okyFWnF7Auc-107" value="" style="rounded=0;whiteSpace=wrap;html=1;fillColor=#f5f5f5;strokeColor=none;fontColor=#333333;" vertex="1" parent="1">
          <mxGeometry x="350" y="340" width="10" height="10" as="geometry" />
        </mxCell>
        <mxCell id="dQwBcyI58okyFWnF7Auc-108" value="" style="rounded=0;whiteSpace=wrap;html=1;fillColor=#f5f5f5;strokeColor=none;fontColor=#333333;" vertex="1" parent="1">
          <mxGeometry x="350" y="350" width="10" height="10" as="geometry" />
        </mxCell>
        <mxCell id="dQwBcyI58okyFWnF7Auc-109" value="" style="rounded=0;whiteSpace=wrap;html=1;fillColor=#f5f5f5;strokeColor=none;fontColor=#333333;" vertex="1" parent="1">
          <mxGeometry x="230" y="330" width="10" height="10" as="geometry" />
        </mxCell>
        <mxCell id="dQwBcyI58okyFWnF7Auc-110" value="" style="rounded=0;whiteSpace=wrap;html=1;fillColor=#f5f5f5;strokeColor=none;fontColor=#333333;" vertex="1" parent="1">
          <mxGeometry x="290" y="320" width="10" height="10" as="geometry" />
        </mxCell>
        <mxCell id="dQwBcyI58okyFWnF7Auc-111" value="" style="rounded=0;whiteSpace=wrap;html=1;fillColor=#dae8fc;strokeColor=none;" vertex="1" parent="1">
          <mxGeometry x="290" y="340" width="10" height="10" as="geometry" />
        </mxCell>
        <mxCell id="dQwBcyI58okyFWnF7Auc-112" value="" style="rounded=0;whiteSpace=wrap;html=1;fillColor=#dae8fc;strokeColor=none;" vertex="1" parent="1">
          <mxGeometry x="290" y="350" width="10" height="10" as="geometry" />
        </mxCell>
        <mxCell id="dQwBcyI58okyFWnF7Auc-113" value="" style="rounded=0;whiteSpace=wrap;html=1;fillColor=#dae8fc;strokeColor=none;" vertex="1" parent="1">
          <mxGeometry x="310" y="290" width="10" height="10" as="geometry" />
        </mxCell>
        <mxCell id="dQwBcyI58okyFWnF7Auc-114" value="" style="rounded=0;whiteSpace=wrap;html=1;fillColor=#dae8fc;strokeColor=none;" vertex="1" parent="1">
          <mxGeometry x="310" y="300" width="10" height="10" as="geometry" />
        </mxCell>
        <mxCell id="dQwBcyI58okyFWnF7Auc-115" value="" style="rounded=0;whiteSpace=wrap;html=1;fillColor=#dae8fc;strokeColor=none;" vertex="1" parent="1">
          <mxGeometry x="330" y="290" width="10" height="10" as="geometry" />
        </mxCell>
        <mxCell id="dQwBcyI58okyFWnF7Auc-116" value="" style="rounded=0;whiteSpace=wrap;html=1;fillColor=#dae8fc;strokeColor=none;" vertex="1" parent="1">
          <mxGeometry x="270" y="350" width="10" height="10" as="geometry" />
        </mxCell>
        <mxCell id="dQwBcyI58okyFWnF7Auc-117" value="" style="rounded=0;whiteSpace=wrap;html=1;fillColor=#dae8fc;strokeColor=none;" vertex="1" parent="1">
          <mxGeometry x="270" y="340" width="10" height="10" as="geometry" />
        </mxCell>
      </root>
    </mxGraphModel>
  </diagram>
</mxfile>
